<?xml version="1.0" standalone="no"?>
<!DOCTYPE svg PUBLIC "-//W3C//DTD SVG 20010904//EN"
 "http://www.w3.org/TR/2001/REC-SVG-20010904/DTD/svg10.dtd">
<svg version="1.0" xmlns="http://www.w3.org/2000/svg"
 width="612.000000pt" height="612.000000pt" viewBox="0 0 612.000000 612.000000"
 preserveAspectRatio="xMidYMid meet">

<g transform="translate(0.000000,612.000000) scale(0.100000,-0.100000)"
fill="#000000" stroke="none">
<path d="M2605 6060 c-11 -5 -47 -6 -80 -3 -45 4 -85 -1 -162 -21 -121 -30
-315 -121 -358 -166 -17 -18 -42 -38 -56 -46 -49 -25 -174 -226 -189 -305 -17
-84 -19 -87 -36 -65 -7 11 -16 17 -19 15 -3 -3 0 -52 5 -108 11 -117 6 -132
-67 -186 -68 -52 -185 -169 -223 -225 -94 -139 -134 -262 -131 -410 1 -106 6
-135 34 -200 14 -32 21 -78 47 -320 5 -41 9 -118 9 -170 1 -90 16 -206 41
-314 13 -60 4 -73 -40 -58 -57 20 -103 -15 -120 -95 -15 -63 6 -268 34 -347
24 -66 36 -89 36 -70 0 5 -12 41 -27 79 -24 64 -26 83 -27 217 -1 134 1 149
20 175 32 42 88 44 130 4 25 -23 66 -144 88 -257 8 -43 19 -90 24 -104 21 -57
32 330 19 655 -5 114 -4 207 1 232 6 26 6 43 0 45 -6 2 -5 14 1 31 7 18 7 26
1 22 -16 -10 -12 5 12 38 18 27 19 29 3 17 -17 -14 -18 -13 -11 10 4 14 9 34
10 45 2 11 5 20 6 20 1 0 3 12 4 28 2 30 -3 33 -23 15 -11 -11 -11 -9 -2 10 6
12 8 22 4 22 -15 0 -5 109 11 132 25 35 19 44 -11 17 l-27 -24 22 32 c12 17
22 36 22 42 0 6 4 11 8 11 4 0 9 14 10 32 2 18 8 36 15 40 6 4 8 10 4 14 -4 4
-2 13 5 21 6 7 8 16 4 20 -3 3 6 21 20 40 14 18 22 33 18 33 -4 0 -1 6 8 13 9
6 25 28 35 47 21 40 52 87 71 110 7 8 39 49 71 90 63 81 123 140 141 140 6 0
8 5 5 10 -3 6 1 10 9 10 9 0 16 4 16 9 0 11 119 71 141 71 8 0 20 -5 26 -11 8
-8 13 -5 18 11 6 18 9 20 16 9 6 -10 9 -10 9 -2 0 7 7 10 17 6 12 -5 14 -3 8
7 -5 9 0 7 16 -3 26 -19 43 -22 34 -7 -3 6 1 17 9 26 15 14 16 13 16 -8 0 -13
5 -30 10 -38 7 -11 9 -6 6 17 -2 19 1 30 6 27 5 -3 7 -12 4 -19 -3 -8 2 -19
10 -25 12 -11 13 -5 9 36 l-5 49 11 -37 c6 -21 17 -38 24 -38 8 0 12 -9 9 -22
-2 -13 -2 -18 2 -11 7 15 34 5 55 -21 16 -20 16 -20 29 4 l13 24 20 -25 20
-24 -6 23 c-4 19 -2 22 15 16 14 -4 18 -2 14 5 -5 7 -1 9 8 5 9 -3 16 -10 16
-15 0 -5 7 -9 16 -9 9 0 23 -8 30 -17 13 -17 13 -17 14 1 0 20 0 20 15 0 10
-13 14 -14 15 -5 0 20 30 -7 30 -28 0 -14 2 -14 10 -1 9 13 10 13 10 0 0 -12
2 -12 9 -1 6 9 10 10 16 2 5 -9 10 -9 20 -1 10 8 16 7 24 -7 8 -14 9 -11 6 17
-4 32 -3 34 11 16 14 -19 14 -19 14 3 0 16 4 21 15 17 8 -3 15 0 15 7 1 26 18
-20 24 -65 7 -46 20 -62 28 -36 2 6 13 12 25 13 18 1 20 -3 15 -38 -4 -29 -2
-38 6 -33 8 5 12 -4 12 -26 1 -28 2 -31 13 -17 11 14 12 11 12 -20 0 -38 23
-69 67 -91 19 -10 21 -10 11 1 -7 7 -13 16 -13 20 0 11 70 -15 75 -29 3 -7 0
-10 -5 -7 -5 3 -18 1 -27 -5 -15 -9 -10 -10 21 -6 22 3 45 1 52 -5 8 -7 14 -7
19 1 3 5 30 10 58 11 49 1 50 1 20 10 -18 5 -33 14 -33 19 0 13 17 13 25 0 4
-6 15 -8 26 -5 11 4 19 2 19 -4 0 -6 12 -11 26 -11 17 0 23 4 18 13 -5 8 -3 8
9 -2 12 -9 28 -11 54 -6 69 13 293 7 293 -7 0 -5 5 -6 10 -3 6 3 10 0 10 -8 0
-7 12 -19 27 -26 19 -9 23 -15 14 -20 -9 -6 -7 -10 9 -14 18 -5 20 -9 10 -26
-10 -20 -7 -25 13 -22 5 1 5 -4 0 -11 -8 -13 -10 -23 -17 -96 -2 -25 -13 -54
-25 -68 -11 -13 -16 -24 -10 -24 6 0 4 -7 -5 -15 -18 -18 -31 -79 -21 -95 4
-7 -1 -14 -13 -17 -17 -4 -19 -11 -14 -46 3 -23 11 -46 19 -50 12 -7 12 -12
-1 -32 -18 -28 -21 -55 -5 -55 6 0 3 -7 -5 -16 -20 -19 -20 -25 -1 -18 8 4 15
1 15 -5 0 -6 -6 -11 -14 -11 -8 0 -21 -13 -30 -30 -8 -16 -10 -30 -6 -30 5 0
7 -6 4 -13 -3 -10 4 -13 25 -12 27 2 29 0 19 -19 -14 -28 -23 -35 -15 -13 4 9
2 17 -3 17 -6 0 -10 -4 -10 -10 0 -5 -6 -10 -13 -10 -8 0 -19 -11 -25 -24 -9
-20 -8 -25 4 -30 9 -3 13 -10 10 -15 -4 -5 -1 -22 5 -38 9 -24 7 -30 -10 -45
-13 -10 -17 -18 -10 -20 9 -3 9 -9 1 -25 -10 -19 -9 -20 10 -15 20 5 20 4 7
-10 -7 -9 -18 -15 -24 -15 -5 1 -9 -3 -8 -9 1 -6 -5 -11 -13 -11 -7 0 -14 4
-14 9 0 4 -5 8 -11 8 -6 0 -9 -7 -5 -15 6 -17 -9 -21 -19 -5 -4 6 -13 5 -25
-2 -10 -7 -16 -16 -13 -22 3 -5 1 -6 -5 -2 -6 4 -21 2 -32 -4 -16 -9 -20 -8
-20 5 0 17 -16 20 -25 5 -3 -5 -1 -10 4 -10 6 0 11 -5 11 -11 0 -6 -9 -9 -20
-6 -11 3 -23 1 -26 -5 -3 -5 -14 -2 -26 8 -19 18 -19 17 -9 -8 11 -30 -2 -41
-40 -31 -17 5 -20 3 -14 -7 6 -10 1 -12 -25 -7 -31 7 -32 6 -25 -20 6 -24 5
-25 -11 -12 -15 13 -16 12 -9 -10 5 -16 4 -21 -4 -17 -6 4 -11 2 -11 -5 0 -10
-3 -10 -12 -1 -19 19 -33 14 -15 -6 19 -21 13 -33 -11 -25 -13 3 -12 1 3 -12
20 -17 20 -17 -2 -12 -13 3 -23 1 -23 -5 0 -6 -7 -7 -16 -4 -9 3 -12 2 -9 -5
4 -5 1 -16 -5 -24 -7 -8 -10 -26 -8 -40 3 -14 1 -25 -5 -25 -5 0 -5 -5 2 -13
9 -12 29 -126 30 -177 0 -8 2 -87 3 -175 3 -135 7 -164 22 -187 10 -15 23 -25
29 -21 6 4 8 0 4 -11 -4 -9 -3 -15 2 -11 10 5 81 -83 119 -148 12 -21 22 -50
22 -65 -1 -31 -23 -65 -35 -54 -5 4 -5 -2 -1 -12 7 -19 6 -19 -12 -3 -11 10
-27 33 -38 52 -10 19 -25 37 -33 40 -9 3 -12 3 -9 -1 4 -4 -3 -15 -16 -25 -13
-10 -37 -47 -55 -81 -22 -46 -42 -70 -71 -88 -47 -29 -52 -46 -26 -83 17 -23
18 -31 8 -45 -7 -9 -15 -25 -18 -34 -6 -17 -17 -22 -37 -19 -5 1 -6 -3 -2 -8
3 -6 -3 -15 -14 -21 -12 -6 -18 -18 -16 -30 2 -11 -1 -20 -6 -20 -6 0 -8 -4
-4 -10 3 -5 -1 -25 -9 -44 -13 -31 -13 -36 4 -51 12 -11 26 -14 40 -10 11 4
20 3 19 -2 -4 -26 5 -23 35 9 20 21 36 32 39 25 2 -7 7 3 11 21 5 19 12 30 19
25 7 -4 8 0 3 13 -7 18 -6 18 12 -1 10 -12 22 -27 25 -35 4 -10 6 -9 6 5 1 12
-3 25 -8 30 -6 6 -4 15 4 22 10 10 14 5 20 -23 4 -26 10 -34 21 -30 8 3 13 2
10 -3 -3 -4 3 -16 14 -26 11 -10 17 -22 14 -26 -3 -5 4 -9 15 -9 16 0 21 -6
21 -28 0 -27 -5 -30 -92 -60 -97 -33 -161 -37 -206 -13 -12 6 -27 9 -32 6 -5
-3 -25 -8 -45 -10 -63 -8 -126 -25 -163 -44 -58 -29 -127 -42 -156 -31 -14 5
-26 13 -26 17 0 5 -10 14 -21 22 -18 11 -23 11 -30 -1 -7 -11 -9 -11 -9 1 0
10 -3 11 -13 2 -8 -6 -16 -8 -19 -5 -3 3 -14 -13 -24 -35 -10 -23 -21 -41 -25
-41 -8 0 -4 -65 6 -80 10 -16 23 -12 81 26 39 26 59 34 75 29 12 -4 38 -2 58
3 20 6 83 18 141 27 108 16 224 10 271 -16 15 -7 24 -7 34 1 8 7 29 10 48 7
63 -8 141 -57 91 -57 -11 0 -14 -6 -9 -20 4 -14 -2 -27 -21 -45 -31 -28 -24
-46 19 -48 33 -2 25 -14 -16 -22 -58 -12 -104 -55 -59 -55 16 -1 16 -1 0 -11
-10 -5 -18 -22 -19 -37 l0 -27 -10 24 c-6 14 -6 28 0 35 16 19 -20 53 -52 49
-41 -6 -97 -42 -97 -64 0 -10 -6 -19 -14 -19 -7 0 -20 -8 -27 -17 -10 -11 -10
-14 -1 -9 7 4 12 1 12 -8 0 -24 13 -19 33 11 l18 28 -2 -25 c-3 -47 1 -57 12
-37 10 17 12 17 25 -8 17 -33 17 -38 2 -29 -7 4 -4 -2 6 -14 20 -23 60 -29 86
-12 10 6 21 4 34 -8 13 -11 16 -12 11 -3 -5 9 2 7 17 -5 14 -10 25 -20 23 -22
-6 -6 34 -42 46 -42 6 0 8 -7 5 -16 -3 -8 -2 -13 3 -10 5 3 11 -12 13 -33 2
-22 0 -37 -4 -35 -10 7 -10 -3 1 -24 15 -29 24 -95 12 -87 -13 8 -14 -5 -2
-24 10 -15 -15 -64 -29 -56 -4 2 -12 -13 -19 -35 -13 -44 -61 -101 -61 -73 0
9 -3 14 -6 10 -14 -13 -32 20 -26 49 5 26 4 28 -11 15 -14 -11 -17 -11 -17 0
0 11 -2 11 -10 -1 -8 -13 -10 -12 -10 3 0 15 -8 11 -40 -19 -23 -22 -40 -47
-40 -60 0 -12 -7 -27 -16 -34 -13 -11 -16 -10 -21 8 -6 25 -38 30 -47 7 -3 -8
-3 -23 0 -32 5 -15 4 -16 -5 -3 -9 13 -11 13 -11 0 0 -13 -1 -13 -10 0 -6 10
-10 11 -10 3 0 -7 -6 -13 -14 -13 -8 0 -16 -6 -19 -14 -6 -16 -77 -17 -77 -1
0 6 -3 6 -8 -1 -4 -6 -15 -14 -26 -17 -14 -6 -17 -3 -12 8 3 8 1 15 -4 15 -6
0 -10 -4 -10 -10 0 -5 -7 -10 -15 -10 -8 0 -15 4 -15 8 0 4 -12 9 -27 10 -16
1 -33 9 -40 18 -7 10 -13 12 -18 4 -4 -7 -14 -3 -28 13 -14 14 -32 23 -49 22
-16 0 -28 3 -28 7 0 4 -7 5 -17 1 -13 -5 -15 -2 -11 15 4 13 0 23 -9 26 -24 9
-25 7 -19 -21 4 -16 3 -23 -1 -16 -5 6 -21 15 -36 18 -22 6 -25 10 -16 21 9
11 7 14 -9 14 -12 0 -24 5 -27 10 -3 6 -15 10 -25 10 -14 0 -18 5 -13 17 5 13
2 15 -12 10 -22 -9 -65 17 -65 39 0 10 -6 14 -15 11 -8 -4 -17 -2 -20 4 -4 5
-11 7 -16 4 -5 -4 -9 1 -9 9 0 9 -9 16 -20 16 -11 0 -20 5 -20 10 0 6 -7 10
-15 10 -8 0 -15 7 -15 16 0 11 -5 14 -16 10 -10 -4 -29 5 -50 24 -19 16 -39
30 -43 30 -5 0 -11 9 -14 20 -5 21 -52 48 -64 37 -11 -11 78 -129 141 -187 33
-30 67 -63 75 -73 9 -10 48 -44 86 -75 39 -31 72 -60 73 -64 2 -5 10 -8 17 -8
7 0 15 -4 17 -8 4 -11 96 -66 138 -82 19 -7 80 -34 135 -60 55 -26 138 -65
185 -86 47 -21 92 -46 101 -56 8 -9 29 -19 45 -21 16 -3 28 -10 27 -16 -2 -6
4 -11 13 -11 9 0 24 -8 33 -17 9 -10 25 -20 36 -21 11 -2 22 -8 23 -13 2 -5
10 -9 18 -9 8 0 14 -5 14 -11 0 -5 5 -7 10 -4 11 7 12 -2 15 -87 0 -32 -2 -58
-6 -58 -4 0 -10 -11 -13 -25 -4 -14 -10 -25 -15 -25 -5 0 -4 -11 2 -25 8 -16
26 -30 50 -37 20 -6 37 -15 37 -19 0 -5 8 -6 18 -3 16 5 16 5 0 -6 -25 -16
-23 -33 3 -25 15 5 19 4 15 -4 -4 -6 0 -11 10 -11 16 0 16 -2 -2 -22 -10 -13
-12 -17 -4 -10 20 17 35 15 20 -3 -10 -13 -8 -13 16 -1 16 8 40 17 54 21 l25
8 -25 -23 c-17 -14 -19 -20 -8 -16 10 3 20 1 23 -4 3 -5 12 -7 19 -4 7 3 16
-2 20 -11 3 -9 2 -13 -4 -10 -6 3 -7 -1 -4 -10 6 -14 9 -14 33 1 14 9 20 11
14 3 -19 -19 -16 -24 11 -24 13 0 22 4 18 9 -3 5 2 6 12 3 10 -4 15 -3 11 3
-3 6 0 13 9 16 8 3 12 12 9 21 -4 10 -2 14 7 11 7 -2 24 6 38 19 28 26 54 31
46 8 -4 -8 -11 -12 -17 -8 -5 3 -7 1 -4 -5 8 -11 45 -5 66 12 12 9 12 8 2 -11
-6 -13 -7 -23 -2 -23 5 0 12 6 14 13 3 6 6 2 6 -10 1 -13 4 -23 7 -23 6 0 104
64 198 129 100 70 128 50 46 -32 -28 -28 -48 -52 -46 -55 5 -4 64 13 199 60
85 30 109 48 64 48 -12 0 -28 9 -34 19 -14 23 4 61 97 205 66 103 135 244 144
296 6 31 3 28 -31 -28 -48 -79 -123 -158 -134 -141 -4 7 -1 25 7 40 8 16 14
35 14 44 0 8 4 15 9 15 6 0 10 8 10 18 0 9 4 33 9 52 5 20 7 46 5 58 -1 13 2
32 7 43 8 13 7 25 -1 40 -6 12 -7 19 -2 16 5 -3 9 17 9 46 -1 38 -6 57 -20 69
-10 10 -23 18 -27 18 -4 0 -10 14 -14 31 -5 23 -11 29 -23 25 -10 -4 -5 5 11
18 15 14 27 29 27 34 0 6 7 12 15 16 20 7 19 25 -2 33 -10 4 -21 11 -25 17 -5
7 -8 7 -8 -1 0 -7 -7 -13 -15 -13 -9 0 -12 6 -9 15 9 21 43 19 62 -5 17 -20
17 -20 45 15 26 33 47 112 26 99 -5 -3 -9 -1 -9 5 0 5 8 14 17 20 14 8 15 13
5 33 -7 12 -11 16 -8 6 3 -9 2 -19 -1 -22 -8 -8 -33 13 -33 28 0 6 5 4 10 -4
7 -11 10 -12 10 -2 0 7 7 20 15 29 9 8 13 18 9 22 -4 3 -9 0 -11 -6 -3 -7 -9
-13 -15 -13 -6 0 -3 9 7 20 10 11 24 20 31 20 7 0 16 6 20 13 4 6 4 9 -1 5
-11 -10 -35 11 -35 30 0 13 3 12 14 -4 14 -17 15 -15 11 23 -2 24 -7 48 -11
54 -4 8 0 9 15 4 21 -6 30 8 12 20 -15 9 9 65 27 65 11 0 13 3 6 8 -14 9 -24
62 -12 62 6 0 8 7 4 15 -3 8 -2 15 3 15 13 0 1 134 -12 142 -9 5 -9 10 0 19
13 13 24 -13 25 -62 1 -19 4 -25 9 -18 9 15 2 55 -17 112 -8 21 -9 37 -4 37 6
0 10 -7 10 -15 0 -8 4 -15 8 -15 5 0 7 13 4 29 -3 23 -8 28 -24 23 -18 -4 -19
-1 -13 34 7 36 35 83 35 57 0 -6 -6 -14 -12 -16 -8 -3 -6 -6 5 -6 9 -1 17 -6
17 -13 0 -6 3 -9 6 -5 3 3 0 18 -8 34 -8 15 -13 43 -12 61 1 23 -3 32 -13 32
-12 0 -13 3 -4 14 13 16 10 42 -9 76 -8 14 -13 30 -12 37 1 6 -2 14 -8 18 -13
8 -7 -43 9 -73 7 -13 8 -22 2 -22 -5 0 -15 16 -22 35 -7 19 -17 35 -22 35 -4
0 -5 4 -2 10 7 11 -27 1 -35 -11 -3 -4 -6 24 -7 62 -1 51 2 72 12 75 15 6 14
26 -2 45 -13 17 -16 119 -3 119 5 0 12 -4 15 -10 3 -5 15 -10 26 -10 23 0 27
38 4 46 -8 4 -15 11 -15 17 0 5 9 2 20 -8 11 -10 23 -15 27 -12 11 12 9 71 -4
104 -7 18 -14 56 -16 85 -1 36 -7 53 -17 55 -11 3 -11 2 -3 -4 13 -9 13 -83 1
-83 -5 0 -8 7 -8 15 0 8 -4 15 -10 15 -13 0 -13 -6 0 -31 8 -13 7 -19 0 -19
-6 0 -8 -5 -4 -12 4 -6 3 -8 -2 -5 -5 3 -11 20 -12 37 -1 18 -9 38 -17 46 -12
13 -14 10 -10 -16 3 -24 1 -29 -9 -21 -9 8 -12 3 -10 -19 1 -18 -4 -31 -13
-34 -12 -5 -13 -9 -3 -21 10 -12 9 -15 -8 -15 -20 0 -36 -25 -26 -41 9 -16 -6
-47 -26 -52 -11 -3 -20 -14 -20 -25 0 -11 -7 -25 -15 -32 -8 -7 -15 -21 -15
-32 0 -10 -4 -16 -10 -13 -6 3 -7 -1 -4 -9 4 -11 -2 -19 -19 -25 -13 -5 -27
-17 -31 -26 -3 -9 -11 -13 -18 -9 -8 5 -9 2 -5 -9 3 -9 2 -19 -3 -22 -6 -4
-10 8 -10 27 l-1 33 -15 -27 c-8 -15 -23 -32 -34 -38 -23 -12 -53 -13 -46 -1
3 5 -1 12 -10 15 -9 3 -12 2 -8 -5 3 -6 -4 -5 -16 3 -15 9 -20 20 -17 38 5 22
4 23 -7 7 -12 -16 -14 -16 -29 1 -10 11 -14 27 -10 40 4 17 1 22 -14 22 -16 0
-19 5 -15 25 4 26 -12 35 -22 13 -4 -7 -4 -3 -2 10 3 15 -1 22 -11 22 -9 0
-13 6 -9 15 3 8 0 15 -7 15 -8 0 -6 4 3 10 13 8 12 10 -3 10 -11 0 -18 7 -16
18 3 38 -2 62 -13 59 -9 -1 -12 9 -10 32 2 20 0 31 -6 27 -6 -3 -13 1 -16 10
-3 8 -2 12 4 9 6 -3 10 5 10 19 0 14 -3 25 -7 25 -22 -4 -24 3 -8 21 10 11 13
20 7 20 -7 0 -12 5 -12 11 0 5 6 7 13 3 8 -5 8 -2 -2 9 -10 13 -10 17 -1 17 7
0 10 6 7 14 -3 7 1 25 8 40 8 14 11 26 7 26 -4 0 -8 8 -8 19 0 16 8 18 61 18
33 0 62 -4 65 -8 3 -5 48 -9 100 -10 112 -3 130 -6 130 -26 0 -8 4 -12 9 -8 6
3 28 1 50 -4 24 -5 41 -5 41 0 0 5 5 9 10 9 6 0 10 -7 10 -16 0 -10 5 -14 16
-10 9 4 13 2 8 -5 -4 -7 -1 -10 7 -7 8 3 25 1 38 -4 19 -7 22 -5 17 7 -6 17 9
21 19 5 3 -5 11 -10 17 -10 6 0 5 7 -3 17 -12 15 -12 16 4 10 10 -4 23 -7 28
-7 5 0 3 -10 -6 -23 -14 -21 -13 -23 8 -23 12 0 25 4 29 10 4 6 13 5 25 -4 10
-7 6 -1 -9 14 -16 15 -28 30 -28 33 0 4 5 2 12 -5 27 -27 45 -13 57 43 7 30
16 57 20 59 14 9 0 191 -19 226 -4 8 -9 18 -10 22 -11 44 -12 45 -33 40 -20
-5 -20 -4 -8 11 12 15 11 20 -7 36 -17 14 -19 20 -9 30 9 10 6 18 -18 37 -24
19 -26 24 -11 24 13 0 17 5 13 20 -3 11 -2 18 3 15 4 -3 10 1 13 9 6 16 -19
30 -35 19 -7 -3 -8 -1 -4 5 4 7 -4 22 -17 34 -13 13 -23 33 -22 45 1 12 -2 20
-7 17 -4 -3 -8 2 -8 11 0 8 -10 20 -22 25 -13 5 -18 9 -11 9 6 1 -3 16 -20 33
-18 18 -36 31 -40 30 -5 -1 -5 3 0 10 13 21 10 32 -17 56 l-25 23 26 -15 c14
-9 29 -13 33 -9 4 5 7 3 6 -2 -5 -21 0 -36 10 -30 6 4 8 11 5 16 -4 5 5 13 18
18 13 5 27 17 31 26 3 9 14 15 23 13 11 -2 17 2 15 11 -1 7 2 19 8 26 13 16 3
23 -27 20 -18 -1 -20 1 -12 12 8 9 8 13 0 13 -6 0 -11 8 -11 18 0 12 5 10 18
-11 l19 -27 28 22 c16 12 26 17 22 11 -4 -6 -3 -14 2 -17 10 -7 9 24 -3 64 -5
17 -4 21 2 11 8 -11 12 -10 21 7 15 28 14 31 -10 25 -17 -5 -20 -2 -17 17 1
13 9 26 17 28 10 3 12 0 8 -12 -5 -11 -1 -16 13 -16 11 0 20 6 20 14 0 22 -23
80 -34 88 -8 6 -8 8 1 8 6 0 9 10 7 23 -3 16 -1 14 10 -8 11 -21 15 -25 16
-11 0 13 5 16 18 12 16 -6 16 -5 0 8 -22 16 -23 30 -3 22 9 -3 15 1 15 11 0
13 3 13 15 3 9 -7 14 -18 12 -24 -4 -11 16 -36 29 -36 5 0 3 5 -4 12 -7 7 -12
19 -11 28 0 10 2 11 6 3 2 -7 14 -13 24 -13 11 0 18 4 15 9 -3 5 1 12 9 15 9
3 18 0 21 -8 3 -7 10 -13 17 -13 7 0 22 -3 35 -7 13 -5 22 -3 22 3 0 6 -5 11
-10 11 -11 0 -34 50 -26 57 2 2 21 -13 42 -34 20 -21 34 -30 31 -20 -6 17 -5
17 15 2 30 -20 35 -19 46 13 8 21 11 23 12 7 0 -11 11 -33 24 -49 l24 -28 -5
26 c-7 34 2 33 22 -1 16 -28 16 -28 11 -3 -3 14 -8 36 -11 50 -3 14 5 3 18
-25 19 -41 22 -56 15 -84 -9 -30 -7 -57 7 -93 3 -7 -5 -19 -17 -27 -13 -7 -20
-10 -16 -6 4 5 0 13 -9 20 -9 7 -16 25 -15 43 0 18 -4 34 -9 38 -6 3 -9 -2 -7
-12 2 -13 -2 -18 -12 -16 -12 3 -12 1 1 -15 20 -24 41 -72 45 -103 10 -83 19
-96 33 -49 9 33 9 33 10 6 1 -24 -14 -63 -30 -77 -11 -10 -5 -48 7 -43 18 7
27 -14 26 -64 -1 -36 2 -45 20 -52 14 -5 22 -17 22 -34 1 -15 -1 -27 -5 -27
-4 0 -7 -29 -8 -64 0 -60 2 -67 30 -91 l31 -25 -31 -35 c-26 -30 -31 -44 -31
-88 0 -29 4 -57 10 -63 6 -6 6 -31 -1 -73 -9 -46 -8 -69 0 -88 11 -24 10 -24
-17 -18 -25 5 -32 1 -56 -35 -43 -66 -48 -86 -30 -128 9 -20 16 -62 16 -93 -1
-62 -36 -169 -57 -169 -9 0 -15 -26 -20 -96 -6 -80 -5 -102 9 -128 l17 -31 -6
30 c-3 17 -9 39 -12 50 -12 39 24 -3 41 -50 15 -38 20 -43 31 -31 18 18 5 69
-30 116 -30 40 -31 50 -7 50 28 0 53 34 59 79 6 45 20 51 48 21 16 -17 17 -25
7 -59 -7 -21 -12 -53 -12 -72 0 -33 0 -33 19 -14 30 31 115 209 151 315 18 52
41 111 52 130 10 19 16 26 12 15 -29 -87 -54 -168 -54 -178 1 -18 70 169 86
233 22 87 22 244 1 314 -10 32 -20 56 -22 54 -2 -2 2 -26 10 -53 8 -26 14 -64
14 -84 -1 -33 -2 -32 -9 12 -16 92 -41 98 -111 26 -45 -46 -49 -54 -49 -97 0
-26 5 -65 10 -87 5 -22 12 -98 16 -170 6 -125 5 -132 -19 -185 -14 -30 -37
-68 -52 -85 -31 -36 -30 -33 19 67 37 75 38 81 35 166 -3 76 -8 94 -31 129
-24 36 -25 42 -11 55 12 13 13 27 5 79 -8 56 -7 67 9 88 11 13 19 29 19 36 0
7 9 23 19 37 11 13 22 45 26 71 6 39 11 47 28 47 11 0 32 -10 46 -22 25 -21
25 -21 -1 7 -24 26 -33 28 -85 27 -63 -2 -103 16 -103 47 0 10 12 45 27 77
l27 59 7 391 c3 215 9 396 13 403 4 6 14 11 22 11 16 0 18 12 4 26 -6 6 -6 22
0 46 10 34 -1 99 -25 161 -5 12 0 28 14 47 27 37 26 38 -5 42 -17 2 -31 14
-43 38 -10 19 -37 72 -60 118 -23 45 -62 112 -87 147 -24 36 -44 71 -44 79 0
7 -17 26 -37 42 -39 29 -95 85 -125 126 -52 68 -61 78 -72 78 -7 0 -29 18 -50
40 -24 26 -45 40 -62 40 -17 0 -48 22 -99 70 -41 39 -79 70 -85 70 -6 0 -24
16 -41 35 -17 19 -40 35 -51 35 -10 0 -17 4 -14 8 6 10 -46 36 -93 47 -18 4
-54 23 -80 42 -25 19 -56 39 -68 44 -13 5 -23 13 -23 19 0 5 -14 10 -31 10
-17 0 -63 17 -102 38 -49 26 -97 43 -147 51 -41 7 -104 21 -140 31 -87 25
-163 34 -300 36 -113 1 -366 18 -425 28 -16 3 -39 1 -50 -4z m89 -38 c-59 -32
-118 -62 -122 -62 -13 0 30 30 52 36 14 3 29 11 32 16 4 6 -2 8 -15 4 -11 -3
-30 -9 -41 -12 -29 -8 -25 3 8 20 15 8 47 15 72 15 l45 0 -31 -17z m114 1
c-10 -2 -28 -2 -40 0 -13 2 -5 4 17 4 22 1 32 -1 23 -4z m2 -23 c0 -5 -15 -10
-32 -9 -31 1 -32 1 -8 9 35 11 40 11 40 0z m-814 -411 c-9 -19 -15 -29 -16
-22 0 15 22 64 27 60 2 -2 -3 -19 -11 -38z m-161 -54 c-9 -26 -20 -44 -23 -41
-2 3 3 26 13 51 9 26 20 44 23 41 2 -3 -3 -26 -13 -51z m-48 -177 c-3 -7 -5
-2 -5 12 0 14 2 19 5 13 2 -7 2 -19 0 -25z m2381 -3 c-3 -3 -9 2 -12 12 -6 14
-5 15 5 6 7 -7 10 -15 7 -18z m-1388 -5 c-6 -11 -13 -20 -16 -20 -2 0 0 9 6
20 6 11 13 20 16 20 2 0 0 -9 -6 -20z m1444 -56 c8 -21 8 -24 -3 -24 -5 0 -11
9 -14 20 -6 24 8 27 17 4z m16 -74 c0 -13 -1 -13 -10 0 -5 8 -10 22 -10 30 0
13 1 13 10 0 5 -8 10 -22 10 -30z m195 22 c-3 -3 -11 0 -18 7 -9 10 -8 11 6 5
10 -3 15 -9 12 -12z m-93 -101 c35 -23 68 -41 74 -41 6 0 17 -7 24 -15 11 -13
8 -15 -14 -15 -35 0 -35 -33 2 -66 24 -23 25 -24 2 -10 -13 9 -34 16 -45 16
-12 0 -16 3 -9 8 7 5 5 13 -9 27 -20 20 -20 20 -14 -3 4 -19 3 -21 -9 -11 -38
31 11 -110 59 -169 5 -7 7 -15 4 -18 -3 -3 -13 8 -23 25 -10 17 -22 31 -26 31
-4 0 -8 9 -8 19 0 11 -6 26 -14 33 -8 8 -16 23 -19 34 -4 17 -5 17 -6 -3 0
-12 4 -25 9 -28 6 -3 10 -11 10 -17 0 -7 -6 -6 -15 2 -19 16 -19 0 0 -55 8
-21 12 -41 10 -44 -3 -2 -5 2 -6 10 -1 8 -5 3 -9 -11 -8 -25 -8 -25 -10 5 -2
29 -2 29 -9 5 -4 -14 -4 -45 1 -69 4 -24 6 -46 4 -49 -12 -11 -23 71 -22 156
1 50 -2 92 -6 92 -5 0 -8 12 -7 28 l0 27 12 -25 c11 -25 11 -25 15 10 2 20 -2
38 -10 45 -8 6 -13 32 -14 65 0 30 -3 69 -7 85 l-6 30 14 -31 c9 -20 38 -48
77 -73z m-1887 29 c3 -5 1 -10 -4 -10 -6 0 -11 5 -11 10 0 6 2 10 4 10 3 0 8
-4 11 -10z m2081 -35 c-23 -17 -36 -19 -36 -6 0 11 18 19 40 20 11 0 10 -3 -4
-14z m144 -38 c0 -18 4 -37 10 -43 16 -16 -54 -84 -87 -84 -15 0 -23 4 -17 8
17 12 25 42 10 36 -31 -12 -22 14 9 29 23 11 37 26 41 44 13 55 34 61 34 10z
m-1686 -46 c-4 -17 -9 -30 -11 -27 -3 2 -2 19 2 36 9 41 17 33 9 -9z m-1294
-9 c0 -5 -9 -17 -19 -26 -11 -10 -22 -28 -25 -41 -3 -12 -12 -25 -20 -28 -10
-4 -13 -1 -9 9 3 8 -1 14 -11 14 -9 0 -16 -5 -16 -12 0 -6 -3 -9 -6 -5 -9 8
38 66 54 66 6 1 11 4 11 9 -3 17 2 22 21 22 11 0 20 -4 20 -8z m2994 -87 c-10
-8 -37 -14 -59 -14 l-40 1 35 10 c19 5 44 13 55 18 28 10 32 3 9 -15z m-437
-47 c-2 -13 -4 -5 -4 17 -1 22 1 32 4 23 2 -10 2 -28 0 -40z m472 26 c-17 -21
-31 -17 -19 6 6 11 15 18 21 14 6 -4 6 -11 -2 -20z m-3020 13 c-2 -1 -13 -9
-24 -17 -19 -14 -19 -14 -6 3 7 9 18 17 24 17 6 0 8 -1 6 -3z m1328 -29 c-3
-8 -6 -5 -6 6 -1 11 2 17 5 13 3 -3 4 -12 1 -19z m1758 12 c-3 -5 -12 -10 -18
-10 -7 0 -20 -13 -30 -29 -11 -18 -28 -32 -45 -34 -22 -4 -21 -5 8 -5 56 0 58
-3 10 -18 -25 -7 -49 -12 -55 -10 -15 5 -30 2 -27 -6 3 -12 -26 -10 -33 2 -3
6 -18 10 -32 10 -22 0 -24 2 -12 16 8 10 23 14 41 12 15 -3 28 -1 28 4 0 4 12
8 26 8 15 0 43 15 67 35 37 32 87 49 72 25z m-3142 -14 c3 -8 -1 -17 -10 -20
-20 -8 -27 -1 -20 19 8 19 23 20 30 1z m3157 -6 c0 -5 -5 -10 -11 -10 -5 0 -7
5 -4 10 3 6 8 10 11 10 2 0 4 -4 4 -10z m-3210 -25 c-10 -12 -10 -15 0 -15 9
0 7 -7 -5 -20 -21 -23 -35 -19 -15 5 15 18 0 20 -20 3 -8 -7 -6 -2 5 12 11 14
24 28 30 32 15 11 19 0 5 -17z m3085 5 c-3 -5 -12 -10 -18 -10 -7 0 -6 4 3 10
19 12 23 12 15 0z m145 -35 c0 -7 6 -18 13 -22 7 -4 23 -23 36 -40 22 -33 22
-33 2 -33 -24 0 -24 0 -11 -35 7 -17 7 -24 0 -20 -6 3 -10 1 -10 -4 0 -6 5
-11 12 -11 9 0 9 -3 0 -12 -9 -9 -7 -14 6 -24 14 -11 9 -11 -27 -3 -24 5 -50
8 -57 5 -6 -2 -20 2 -31 9 -10 8 -15 15 -10 15 4 0 -10 16 -30 36 -32 31 -34
36 -16 31 13 -3 25 -2 28 3 3 4 -7 11 -20 14 -28 7 -25 23 9 36 l21 9 -22 0
c-12 1 -25 -3 -28 -9 -3 -5 -14 -10 -23 -10 -13 0 -13 2 4 15 10 8 30 15 44
15 14 0 37 11 50 24 28 28 60 34 60 11z m-510 -85 c0 -5 -2 -10 -4 -10 -3 0
-8 5 -11 10 -3 6 -1 10 4 10 6 0 11 -4 11 -10z m-2760 -10 c0 -5 -5 -10 -11
-10 -5 0 -7 5 -4 10 3 6 8 10 11 10 2 0 4 -4 4 -10z m2750 -60 c0 -11 -2 -20
-4 -20 -2 0 -6 9 -9 20 -3 11 -1 20 4 20 5 0 9 -9 9 -20z m430 -20 c0 -5 -7
-10 -16 -10 -8 0 -12 5 -9 10 3 6 10 10 16 10 5 0 9 -4 9 -10z m-3184 -62
c-18 -26 -22 -17 -5 14 6 11 13 17 16 15 3 -3 -2 -16 -11 -29z m3331 5 c15
-14 19 -29 17 -65 -1 -25 -4 -51 -8 -56 -3 -5 -5 -36 -4 -68 0 -33 -5 -84 -11
-114 -7 -30 -15 -74 -18 -98 -4 -35 -8 -41 -19 -31 -8 6 -14 18 -14 25 0 7 -6
11 -14 8 -9 -3 -17 3 -21 18 -4 13 -14 31 -23 41 -11 12 -12 17 -2 17 10 0 9
4 -1 16 -12 15 -11 16 10 9 22 -7 23 -5 17 18 -3 15 -1 29 5 32 7 5 2 16 -12
31 -17 18 -25 21 -32 12 -6 -10 -7 -9 -4 2 2 8 -7 27 -21 43 -40 43 -9 32 38
-14 35 -34 41 -37 35 -17 l-8 23 23 -20 23 -20 -7 20 c-5 11 -10 28 -13 37 -3
9 -19 22 -37 29 -23 9 -27 13 -13 16 25 6 11 23 -19 23 -14 0 -23 4 -19 9 3 5
-4 12 -15 16 -25 8 -17 25 13 26 12 0 16 3 10 6 -30 12 -8 18 54 15 63 -3 67
-2 48 12 -20 15 -20 15 1 16 12 0 30 -8 41 -17z m-165 -238 c11 -20 11 -20
-11 0 -13 11 -28 29 -33 40 -11 20 -11 20 11 0 13 -11 28 -29 33 -40z m-412
10 c11 -13 10 -14 -4 -9 -9 3 -16 10 -16 15 0 13 6 11 20 -6z m236 -82 c-8 -8
-12 -3 -21 27 l-7 25 17 -23 c9 -13 14 -26 11 -29z m74 -23 c6 -11 8 -20 6
-20 -3 0 -10 9 -16 20 -6 11 -8 20 -6 20 3 0 10 -9 16 -20z m125 10 c3 -5 1
-10 -4 -10 -6 0 -11 5 -11 10 0 6 2 10 4 10 3 0 8 -4 11 -10z m-470 -50 c3 -5
1 -10 -4 -10 -6 0 -11 5 -11 10 0 6 2 10 4 10 3 0 8 -4 11 -10z m-2695 -34 c0
-3 -4 -8 -10 -11 -5 -3 -10 -1 -10 4 0 6 5 11 10 11 6 0 10 -2 10 -4z m2730
-10 c0 -3 -4 -8 -10 -11 -5 -3 -10 -1 -10 4 0 6 5 11 10 11 6 0 10 -2 10 -4z
m-36 -65 c-6 -6 -24 19 -24 34 1 6 7 1 15 -9 8 -11 12 -22 9 -25z m31 17 c4
-14 8 -18 12 -10 7 18 20 14 26 -9 4 -16 2 -19 -11 -14 -9 4 -23 8 -29 8 -7 0
-13 4 -13 8 0 4 -3 14 -6 23 -3 9 -2 16 4 16 5 0 13 -10 17 -22z m-2735 8 c0
-2 -8 -10 -17 -17 -16 -13 -17 -12 -4 4 13 16 21 21 21 13z m2715 -143 c18
-28 18 -28 -2 -10 -11 9 -23 17 -27 17 -5 0 -5 -8 -1 -17 4 -13 3 -15 -5 -7
-11 11 -4 44 10 44 4 0 16 -12 25 -27z m-595 -42 c0 -6 -4 -13 -10 -16 -5 -3
-10 1 -10 9 0 9 5 16 10 16 6 0 10 -4 10 -9z m-2140 -5 c0 -3 -4 -8 -10 -11
-5 -3 -10 -1 -10 4 0 6 5 11 10 11 6 0 10 -2 10 -4z m2659 -60 c7 -8 8 -17 3
-20 -6 -3 -12 3 -15 14 -6 24 -4 25 12 6z m38 -1 c0 -8 -4 -15 -9 -15 -4 0 -8
7 -8 15 0 8 4 15 8 15 5 0 9 -7 9 -15z m68 -455 c3 -5 -1 -10 -9 -10 -8 0 -18
5 -21 10 -3 6 1 10 9 10 8 0 18 -4 21 -10z m-39 -107 c4 -19 4 -37 0 -40 -13
-13 -34 21 -38 62 -3 41 -2 43 14 28 10 -9 20 -31 24 -50z m-541 7 c0 -8 -8
-16 -17 -18 -13 -2 -18 3 -18 18 0 15 5 20 18 18 9 -2 17 -10 17 -18z m-62
-95 c15 -19 23 -35 18 -35 -8 0 -58 19 -69 26 -6 4 9 44 16 44 4 0 20 -16 35
-35z m421 -17 c9 -12 16 -25 16 -28 0 -10 -48 -60 -58 -60 -6 0 -12 -6 -15
-12 -3 -9 -8 -10 -15 -3 -11 11 34 125 49 125 4 0 15 -10 23 -22z m-399 -59
c5 -15 10 -18 18 -10 7 7 16 7 30 0 14 -8 18 -8 13 0 -4 6 -2 11 3 11 6 0 11
-13 11 -30 0 -25 -4 -30 -22 -30 -13 0 -32 7 -42 15 -11 8 -28 15 -37 15 -19
0 -29 18 -21 38 7 20 40 14 47 -9z m125 -33 c0 -17 -27 -29 -35 -16 -4 6 -3
15 0 20 9 15 35 12 35 -4z m575 -56 c3 -5 1 -10 -4 -10 -6 0 -11 5 -11 10 0 6
2 10 4 10 3 0 8 -4 11 -10z m-80 -340 c3 -5 -1 -10 -10 -10 -9 0 -13 5 -10 10
3 6 8 10 10 10 2 0 7 -4 10 -10z m-75 -40 c0 -5 -4 -10 -10 -10 -5 0 -10 5
-10 10 0 6 5 10 10 10 6 0 10 -4 10 -10z m94 -16 c3 -8 2 -12 -4 -9 -6 3 -10
10 -10 16 0 14 7 11 14 -7z m-109 -84 c10 -11 14 -20 9 -20 -5 0 -15 9 -22 20
-7 11 -11 20 -9 20 2 0 12 -9 22 -20z m-871 -109 c3 -5 -13 -16 -37 -26 -52
-21 -87 -52 -87 -78 0 -21 -26 -57 -42 -57 -15 0 -9 31 15 73 33 59 133 117
151 88z m906 -41 c0 -11 -2 -20 -5 -20 -2 0 -9 9 -15 20 -9 16 -8 20 5 20 8 0
15 -9 15 -20z m-23 -62 c-3 -8 -6 -5 -6 6 -1 11 2 17 5 13 3 -3 4 -12 1 -19z
m-1 -50 c12 -23 13 -29 2 -26 -7 3 -14 14 -16 26 -2 12 -8 22 -13 22 -5 0 -9
5 -9 11 0 17 19 0 36 -33z m51 -80 c-3 -8 -6 -5 -6 6 -1 11 2 17 5 13 3 -3 4
-12 1 -19z m-22 2 c3 -5 1 -10 -4 -10 -6 0 -11 5 -11 10 0 6 2 10 4 10 3 0 8
-4 11 -10z m-40 -100 c3 -5 1 -10 -4 -10 -6 0 -11 5 -11 10 0 6 2 10 4 10 3 0
8 -4 11 -10z m30 -10 c3 -5 1 -10 -4 -10 -6 0 -11 5 -11 10 0 6 2 10 4 10 3 0
8 -4 11 -10z m105 -45 c0 -5 -5 -3 -10 5 -5 8 -10 20 -10 25 0 6 5 3 10 -5 5
-8 10 -19 10 -25z m-73 -4 l22 -28 -22 1 c-12 1 -23 7 -23 14 -4 36 -4 37 -13
22 -6 -8 -7 -19 -3 -25 3 -5 -2 -4 -11 3 -13 11 -14 17 -4 27 18 21 31 18 54
-14z m36 -61 c7 0 6 -5 -2 -12 -11 -11 -14 -10 -18 0 -3 6 -9 10 -14 6 -5 -3
-9 0 -9 6 0 7 7 9 16 6 9 -3 21 -6 27 -6z m-2 -47 c13 -16 12 -17 -3 -4 -17
13 -22 21 -14 21 2 0 10 -8 17 -17z m28 -66 c1 -5 -6 -1 -15 7 -8 9 -12 21 -8
28 5 8 10 6 15 -8 4 -10 8 -23 8 -27z m-82 11 c-3 -8 -6 -5 -6 6 -1 11 2 17 5
13 3 -3 4 -12 1 -19z m-413 -33 c-4 -8 -1 -15 5 -15 6 0 11 -5 11 -11 0 -5 -6
-7 -12 -3 -9 6 -9 3 0 -9 10 -11 11 -21 4 -33 -7 -12 -6 -24 1 -36 9 -14 7
-27 -13 -64 -27 -48 -60 -85 -60 -66 0 7 -3 11 -7 11 -27 -4 -35 1 -23 16 10
13 9 15 -8 15 -26 0 -38 18 -23 33 6 6 11 25 11 43 0 20 6 34 16 38 9 4 14 9
11 12 -8 8 18 34 32 34 6 0 11 5 11 11 0 5 4 8 9 4 6 -3 15 4 21 15 12 23 22
27 14 5z m233 -97 c-3 -8 -6 -5 -6 6 -1 11 2 17 5 13 3 -3 4 -12 1 -19z m-2
-40 c-1 -12 -7 -24 -13 -26 -15 -5 -15 3 -2 29 14 25 17 24 15 -3z m-45 -73
c11 -13 10 -14 -4 -9 -9 3 -16 10 -16 15 0 13 6 11 20 -6z m-950 -202 c0 -5
-5 -15 -10 -23 -8 -12 -10 -11 -10 8 0 12 5 22 10 22 6 0 10 -3 10 -7z m209
-89 c6 4 16 -4 22 -18 8 -16 17 -22 28 -19 9 4 5 -3 -9 -15 -22 -18 -27 -19
-36 -6 -6 8 -18 12 -25 9 -10 -4 -14 3 -13 25 2 43 3 47 13 31 5 -7 14 -10 20
-7z m85 -23 c3 -4 1 -13 -5 -21 -7 -13 -9 -12 -9 3 0 9 -7 17 -15 17 -8 0 -15
4 -15 9 0 10 38 3 44 -8z m-10 -56 c-4 -8 -8 -15 -10 -15 -2 0 -4 7 -4 15 0 8
4 15 10 15 5 0 7 -7 4 -15z m886 -10 c0 -14 -24 -27 -34 -18 -12 12 -5 22 11
16 13 -5 15 -2 10 11 -4 10 -3 15 3 11 6 -3 10 -12 10 -20z m-836 -1 c9 -3 13
-11 11 -18 -3 -6 0 -4 6 5 11 15 14 15 31 0 20 -17 23 -36 8 -46 -6 -4 -7 1
-3 12 5 15 4 16 -8 7 -8 -6 -22 -11 -31 -11 -23 0 -52 32 -43 46 7 13 8 13 29
5z m819 -41 c-13 -2 -23 -11 -23 -19 0 -16 16 -19 25 -4 3 5 12 7 20 4 12 -5
12 -10 -3 -29 -15 -21 -19 -22 -38 -10 -16 10 -24 11 -33 2 -8 -8 -11 -8 -11
1 0 21 43 62 64 61 19 -2 19 -2 -1 -6z m-23 -68 c7 -9 8 -15 2 -15 -5 0 -12 7
-16 15 -3 8 -4 15 -2 15 2 0 9 -7 16 -15z m-70 -105 c0 -5 -5 -10 -11 -10 -5
0 -7 5 -4 10 3 6 8 10 11 10 2 0 4 -4 4 -10z m-30 -30 c0 -5 -5 -10 -11 -10
-5 0 -7 5 -4 10 3 6 8 10 11 10 2 0 4 -4 4 -10z m-65 -55 c-16 -14 -34 -25
-39 -25 -6 0 5 11 24 25 43 32 54 32 15 0z"/>
<path d="M4280 5152 c0 -12 19 -26 26 -19 2 2 -2 10 -11 17 -9 8 -15 8 -15 2z"/>
<path d="M4355 5080 c3 -5 8 -10 11 -10 2 0 4 5 4 10 0 6 -5 10 -11 10 -5 0
-7 -4 -4 -10z"/>
<path d="M4630 5000 c-8 -5 -12 -12 -9 -15 4 -3 12 1 19 10 14 17 11 19 -10 5z"/>
<path d="M4710 4885 c-10 -12 -10 -15 4 -15 9 0 16 7 16 15 0 8 -2 15 -4 15
-2 0 -9 -7 -16 -15z"/>
<path d="M4769 4814 c-21 -12 -22 -13 -4 -13 11 0 29 4 39 8 16 6 17 9 5 13
-8 3 -26 0 -40 -8z"/>
<path d="M4808 4753 c7 -3 16 -2 19 1 4 3 -2 6 -13 5 -11 0 -14 -3 -6 -6z"/>
<path d="M4795 4720 c-3 -6 1 -7 9 -4 18 7 21 14 7 14 -6 0 -13 -4 -16 -10z"/>
<path d="M4820 4353 c0 -21 3 -24 9 -14 5 8 7 20 4 28 -8 21 -13 15 -13 -14z"/>
<path d="M1569 4373 c-13 -16 -12 -17 4 -4 16 13 21 21 13 21 -2 0 -10 -8 -17
-17z"/>
<path d="M4680 4211 c0 -5 5 -13 10 -16 6 -3 10 -2 10 4 0 5 -4 13 -10 16 -5
3 -10 2 -10 -4z"/>
<path d="M1591 4047 c-13 -21 -12 -21 5 -5 10 10 16 20 13 22 -3 3 -11 -5 -18
-17z"/>
<path d="M4351 4044 c0 -11 3 -14 6 -6 3 7 2 16 -1 19 -3 4 -6 -2 -5 -13z"/>
<path d="M4706 4035 c4 -8 8 -15 10 -15 2 0 4 7 4 15 0 8 -4 15 -10 15 -5 0
-7 -7 -4 -15z"/>
<path d="M4332 4001 c0 -17 1 -31 3 -31 7 0 12 39 5 49 -4 7 -7 -1 -8 -18z"/>
<path d="M4234 3863 c2 -10 11 -19 22 -21 14 -2 16 -1 6 6 -8 5 -13 13 -12 18
1 5 -3 10 -8 12 -6 2 -9 -5 -8 -15z"/>
<path d="M4773 3773 c-7 -22 -8 -42 -3 -47 5 -5 12 7 15 27 10 51 2 64 -12 20z"/>
<path d="M4191 3764 c0 -11 3 -14 6 -6 3 7 2 16 -1 19 -3 4 -6 -2 -5 -13z"/>
<path d="M4741 3709 c-1 -8 10 -26 24 -39 l25 -23 9 24 c6 16 5 25 -2 28 -6 2
-13 -1 -15 -7 -2 -7 -8 -12 -14 -12 -6 0 -7 7 -4 16 3 8 2 13 -3 9 -5 -3 -12
1 -14 7 -4 9 -6 8 -6 -3z"/>
<path d="M2100 3675 c-7 -9 -8 -15 -2 -15 5 0 12 7 16 15 3 8 4 15 2 15 -2 0
-9 -7 -16 -15z"/>
<path d="M2165 3678 c-16 -6 -37 -17 -45 -24 -10 -9 -20 -10 -30 -4 -8 5 -19
10 -25 10 -5 0 -3 -5 5 -10 8 -5 11 -10 6 -10 -5 0 -18 7 -28 17 -12 10 -18
12 -18 4 0 -7 -4 -10 -9 -6 -5 3 -12 1 -15 -4 -3 -5 -15 -7 -26 -4 -13 4 -20
0 -20 -10 0 -8 -7 -18 -16 -21 -24 -9 -28 -7 -14 9 7 8 9 15 4 15 -5 0 -36
-28 -69 -62 -54 -55 -58 -62 -40 -69 19 -7 19 -8 -2 -8 -13 -1 -23 -5 -23 -11
0 -5 10 -10 23 -11 19 0 20 -1 4 -8 -17 -6 -17 -8 -3 -20 25 -21 50 -20 69 3
10 11 15 14 11 6 -6 -12 -4 -13 7 -2 7 6 24 12 37 12 13 0 20 4 17 10 -3 6 -1
10 5 10 6 0 8 6 4 13 -6 10 -4 10 7 0 16 -16 33 -17 23 -2 -5 8 8 10 42 6 26
-2 60 -1 75 3 18 5 37 3 54 -6 15 -8 38 -14 52 -14 13 0 21 -4 18 -10 -4 -6 8
-10 28 -10 21 0 37 -6 40 -14 7 -17 -20 -30 -27 -13 -3 9 -7 9 -13 1 -8 -12
-93 -44 -116 -44 -7 0 -24 -6 -38 -14 -14 -7 -37 -16 -51 -19 -14 -4 -40 -23
-57 -42 -32 -37 -41 -61 -18 -52 13 5 39 -17 30 -27 -3 -3 13 -4 37 -2 35 3
43 0 47 -15 6 -21 28 -25 38 -8 4 6 13 8 21 5 12 -4 12 -2 4 14 -9 16 -8 20 6
20 8 0 23 9 32 19 10 11 26 22 37 25 16 5 21 1 22 -16 5 -66 83 -106 172 -89
73 15 98 33 111 81 11 40 11 40 35 24 24 -16 36 -64 16 -64 -5 0 -25 -7 -44
-15 -25 -10 -35 -20 -31 -30 5 -12 9 -12 29 1 15 10 25 12 30 5 10 -17 53 -13
64 7 5 9 12 16 15 15 3 -2 14 -3 24 -2 10 0 12 3 4 6 -6 2 -9 9 -6 14 4 6 11
6 19 -1 12 -10 13 -6 5 19 -4 17 -11 35 -15 41 -9 15 7 12 29 -5 11 -8 22 -15
26 -15 10 0 -1 85 -13 95 -7 6 -13 20 -13 32 -1 18 4 22 22 21 13 -1 24 -6 24
-10 0 -4 26 -8 58 -8 68 0 138 38 129 71 -3 10 -2 18 2 17 18 -2 31 3 31 13 0
5 -5 7 -12 3 -8 -5 -9 -2 -5 10 5 14 3 17 -8 12 -9 -3 -15 0 -15 11 0 13 -3
13 -15 3 -13 -11 -14 -10 -9 6 4 10 12 26 18 34 8 11 4 10 -16 -3 -17 -11 -29
-13 -33 -6 -4 5 -15 7 -26 4 -15 -5 -19 -1 -19 15 0 22 0 22 -20 -1 -10 -13
-19 -19 -20 -12 0 6 6 14 13 16 9 4 8 6 -2 6 -11 1 -11 4 0 18 13 15 12 15 -8
5 -19 -11 -20 -10 -15 11 5 19 3 20 -10 10 -10 -9 -18 -9 -25 -2 -8 8 -13 5
-18 -11 -7 -22 -7 -22 -27 6 -11 16 -18 21 -14 12 3 -10 1 -18 -5 -18 -6 0 -7
-5 -3 -12 4 -7 -8 -1 -26 12 -19 13 -45 25 -59 26 -14 1 -34 5 -43 9 -12 5
-18 3 -18 -5 0 -9 -12 -11 -38 -7 -21 2 -52 -1 -70 -8 -23 -10 -32 -11 -35 -2
-2 8 -12 6 -30 -6 -24 -15 -27 -16 -27 -2 0 13 -4 14 -20 5 -22 -12 -44 -5
-35 11 8 12 -1 11 -24 -3 -14 -9 -26 -8 -50 1 -17 8 -28 17 -25 22 3 5 4 9 2
8 -2 0 -16 -5 -33 -11z m32 -25 c-6 -6 -57 -12 -57 -6 0 7 45 21 53 16 5 -3 6
-7 4 -10z m33 -13 c0 -5 -4 -10 -10 -10 -5 0 -10 5 -10 10 0 6 5 10 10 10 6 0
10 -4 10 -10z m-183 -6 c-3 -3 -12 -4 -19 -1 -8 3 -5 6 6 6 11 1 17 -2 13 -5z
m307 -229 c5 -15 -40 -32 -98 -37 -14 -1 -26 -6 -26 -10 0 -4 -7 -4 -17 -1
-11 4 -14 3 -9 -5 4 -7 2 -12 -3 -12 -14 0 -14 30 -1 31 20 3 25 5 40 14 13 8
79 31 101 34 4 1 9 -6 13 -14z m16 -89 c0 -15 -24 -28 -34 -19 -13 14 -5 33
14 33 11 0 20 -6 20 -14z m292 -78 c-7 -7 -12 -8 -12 -2 0 6 3 14 7 17 3 4 9
5 12 2 2 -3 -1 -11 -7 -17z"/>
<path d="M3367 3679 c7 -7 15 -10 18 -7 3 3 -2 9 -12 12 -14 6 -15 5 -6 -5z"/>
<path d="M4812 3660 c0 -14 2 -19 5 -12 2 6 2 18 0 25 -3 6 -5 1 -5 -13z"/>
<path d="M4750 3645 c0 -8 2 -15 4 -15 2 0 6 7 10 15 3 8 1 15 -4 15 -6 0 -10
-7 -10 -15z"/>
<path d="M4741 3575 c5 -23 30 -27 37 -5 3 8 1 12 -3 8 -5 -4 -15 -2 -23 4
-12 10 -14 9 -11 -7z"/>
<path d="M4794 3549 c-3 -6 -1 -16 5 -22 8 -8 11 -5 11 11 0 24 -5 28 -16 11z"/>
<path d="M4756 3518 c14 -48 23 -54 24 -15 0 27 -4 37 -16 37 -11 0 -14 -6 -8
-22z"/>
<path d="M4721 3424 c0 -11 3 -14 6 -6 3 7 2 16 -1 19 -3 4 -6 -2 -5 -13z"/>
<path d="M4740 3359 c0 -5 5 -7 10 -4 6 3 10 8 10 11 0 2 -4 4 -10 4 -5 0 -10
-5 -10 -11z"/>
<path d="M1280 3325 c0 -29 32 -145 40 -145 5 0 12 15 15 33 4 17 12 37 17 44
12 15 -4 46 -34 67 -28 20 -38 20 -38 1z"/>
<path d="M4698 3225 c-3 -14 -2 -25 2 -25 4 0 10 11 12 25 3 14 2 25 -2 25 -4
0 -10 -11 -12 -25z"/>
<path d="M2460 3165 c-10 -12 -10 -15 4 -15 9 0 16 7 16 15 0 8 -2 15 -4 15
-2 0 -9 -7 -16 -15z"/>
<path d="M2560 3170 c0 -5 7 -7 16 -3 11 4 15 1 12 -13 -3 -16 -83 -65 -113
-69 -5 0 -9 -6 -8 -13 2 -6 -3 -9 -11 -6 -8 3 -17 1 -21 -5 -9 -15 63 -5 82
11 8 6 24 13 36 13 11 1 23 7 25 13 2 8 9 9 22 2 22 -12 53 -3 43 13 -4 6 0 8
9 4 18 -6 38 10 38 31 0 11 -9 13 -40 9 -27 -3 -43 -1 -51 9 -13 16 -39 19
-39 4z"/>
<path d="M2385 3139 c-4 -6 -5 -12 -2 -15 2 -3 7 2 10 11 7 17 1 20 -8 4z"/>
<path d="M1330 2943 c0 -7 7 -30 15 -50 8 -21 22 -68 29 -103 8 -36 15 -54 15
-41 1 13 -6 49 -14 81 -16 62 -44 133 -45 113z"/>
<path d="M4250 2890 c0 -5 5 -10 11 -10 5 0 7 5 4 10 -3 6 -8 10 -11 10 -2 0
-4 -4 -4 -10z"/>
<path d="M4336 2871 c-3 -5 1 -14 8 -20 12 -10 13 -8 9 8 -6 23 -9 25 -17 12z"/>
<path d="M4277 2853 c-4 -3 -7 -11 -7 -17 0 -6 5 -5 12 2 6 6 9 14 7 17 -3 3
-9 2 -12 -2z"/>
<path d="M4332 2816 c1 -14 8 -26 15 -26 18 0 16 25 -2 40 -13 11 -15 8 -13
-14z"/>
<path d="M4991 2793 c-1 -6 -4 -20 -7 -30 -5 -17 -5 -17 6 0 6 10 9 23 6 30
-3 9 -5 9 -5 0z"/>
<path d="M4340 2768 c0 -7 12 -31 26 -53 18 -28 23 -33 18 -15 -3 14 -12 29
-18 33 -8 6 -7 10 2 14 10 4 10 8 1 19 -14 17 -29 18 -29 2z"/>
<path d="M4962 2715 c-17 -37 -14 -45 4 -12 9 16 14 31 11 33 -2 2 -9 -7 -15
-21z"/>
<path d="M1401 2664 c0 -11 3 -14 6 -6 3 7 2 16 -1 19 -3 4 -6 -2 -5 -13z"/>
<path d="M4898 2565 c-3 -11 -9 -29 -13 -40 -3 -11 1 -7 10 8 9 16 15 33 12
40 -2 6 -6 3 -9 -8z"/>
<path d="M4293 2556 c-12 -14 1 -36 22 -36 5 0 4 4 -4 9 -12 8 -12 12 -2 25
16 19 1 21 -16 2z"/>
<path d="M1437 2525 c3 -22 7 -42 9 -44 8 -9 2 45 -6 64 -7 14 -8 8 -3 -20z"/>
<path d="M4260 2520 c0 -5 4 -10 9 -10 5 0 13 -9 16 -20 4 -11 10 -18 15 -15
5 3 11 1 15 -5 8 -13 25 -13 25 0 0 6 -7 10 -15 10 -8 0 -15 3 -15 8 -1 11
-50 44 -50 32z"/>
<path d="M4860 2479 c-7 -11 -10 -23 -7 -25 2 -2 9 7 15 21 14 30 7 33 -8 4z"/>
<path d="M2852 2481 c-8 -5 -12 -17 -10 -27 3 -17 13 -19 80 -19 62 0 74 2 65
13 -28 35 -104 53 -135 33z"/>
<path d="M1451 2454 c0 -11 3 -14 6 -6 3 7 2 16 -1 19 -3 4 -6 -2 -5 -13z"/>
<path d="M3935 2440 c-3 -5 -1 -10 4 -10 6 0 11 5 11 10 0 6 -2 10 -4 10 -3 0
-8 -4 -11 -10z"/>
<path d="M4260 2418 c0 -7 5 -20 10 -28 8 -12 10 -11 10 7 0 12 -4 25 -10 28
-5 3 -10 0 -10 -7z"/>
<path d="M1465 2397 c9 -44 50 -102 94 -133 48 -34 54 -49 80 -179 25 -121 93
-389 120 -466 30 -89 84 -200 124 -255 20 -28 37 -62 37 -75 0 -15 3 -19 8
-12 4 7 19 16 32 22 24 10 24 10 3 10 -14 1 -23 7 -23 16 0 8 -4 15 -8 15 -5
0 -24 23 -42 52 -24 36 -30 53 -21 56 8 3 4 9 -11 16 -12 7 -22 18 -21 24 2 7
-2 12 -7 12 -6 0 -10 6 -10 13 0 6 -7 26 -16 42 -43 80 -103 296 -169 605 -15
72 -18 76 -61 104 -45 28 -80 73 -102 131 l-12 30 5 -28z"/>
<path d="M4302 2394 c1 -9 9 -19 16 -22 9 -3 13 2 10 14 -1 9 -9 19 -16 22 -9
3 -13 -2 -10 -14z"/>
<path d="M4652 2383 c-5 -10 -12 -44 -15 -76 -3 -32 -10 -64 -15 -70 -11 -14
-65 -292 -60 -309 2 -5 17 58 33 142 21 110 34 153 45 157 37 10 100 47 122
71 18 20 13 18 -19 -8 -41 -32 -69 -36 -45 -7 7 8 9 29 5 53 -9 60 -33 82 -51
47z m38 -127 c0 -2 -7 -7 -16 -10 -8 -3 -12 -2 -9 4 6 10 25 14 25 6z"/>
<path d="M4789 2343 c-13 -16 -12 -17 4 -4 16 13 21 21 13 21 -2 0 -10 -8 -17
-17z"/>
<path d="M4350 2315 c0 -5 5 -17 10 -25 5 -8 10 -10 10 -5 0 6 -5 17 -10 25
-5 8 -10 11 -10 5z"/>
<path d="M4365 2060 c3 -5 8 -10 11 -10 2 0 4 5 4 10 0 6 -5 10 -11 10 -5 0
-7 -4 -4 -10z"/>
<path d="M4410 1961 c0 -5 5 -13 10 -16 6 -3 10 -2 10 4 0 5 -4 13 -10 16 -5
3 -10 2 -10 -4z"/>
<path d="M4537 1838 c-9 -39 -16 -73 -14 -75 6 -5 40 125 35 136 -1 6 -11 -22
-21 -61z"/>
<path d="M4497 1687 c-10 -34 -36 -103 -58 -154 -21 -51 -39 -100 -39 -110 1
-10 9 6 20 34 10 29 26 67 35 85 21 43 67 186 63 199 -2 5 -11 -19 -21 -54z"/>
<path d="M4346 1607 c3 -10 9 -15 12 -12 3 3 0 11 -7 18 -10 9 -11 8 -5 -6z"/>
<path d="M4393 1340 c0 -25 2 -35 4 -22 2 12 2 32 0 45 -2 12 -4 2 -4 -23z"/>
<path d="M1930 1093 c-3 -89 -2 -159 3 -154 4 4 6 77 5 162 l-3 154 -5 -162z"/>
<path d="M4392 1015 c0 -16 2 -22 5 -12 2 9 2 23 0 30 -3 6 -5 -1 -5 -18z"/>
<path d="M4431 898 c30 -59 76 -221 88 -315 7 -47 8 -105 3 -145 -5 -38 -6
-68 -3 -68 20 0 115 68 117 84 3 24 -21 149 -40 206 -15 43 -15 44 2 21 41
-59 50 -61 15 -5 -21 34 -58 84 -83 112 -64 70 -77 87 -95 122 -8 16 -18 30
-20 30 -3 0 4 -19 16 -42z"/>
<path d="M1891 863 c-6 -21 -23 -55 -38 -75 -56 -72 -209 -245 -272 -306 -51
-50 -61 -66 -50 -73 8 -5 73 -39 144 -75 l130 -66 6 139 c6 143 30 272 75 410
14 42 23 78 20 80 -3 3 -9 -13 -15 -34z"/>
<path d="M4695 560 c57 -58 76 -68 24 -13 -18 20 -39 43 -46 50 -6 7 -15 13
-19 13 -5 0 14 -22 41 -50z"/>
</g>
</svg>
